# Blender 4.3.2
# www.blender.org
mtllib castle_tower.mtl
o Cylinder
v 0.000000 20.000000 3.500000
v 0.000000 0.000000 3.500000
v -0.682816 20.000000 3.432748
v -0.682816 0.000000 3.432748
v -1.339392 20.000000 3.233578
v -1.339392 0.000000 3.233578
v -1.944496 20.000000 2.910144
v -1.944496 0.000000 2.910144
v -2.474874 20.000000 2.474874
v -2.474874 0.000000 2.474874
v -2.910144 20.000000 1.944496
v -2.910144 0.000000 1.944496
v -3.233578 20.000000 1.339392
v -3.233578 0.000000 1.339392
v -3.432748 20.000000 0.682816
v -3.432748 0.000000 0.682816
v -3.500000 20.000000 0.000000
v -3.500000 0.000000 0.000000
v -3.432748 20.000000 -0.682816
v -3.432748 0.000000 -0.682816
v -3.233578 20.000000 -1.339392
v -3.233578 0.000000 -1.339392
v -2.910144 20.000000 -1.944496
v -2.910144 0.000000 -1.944496
v -2.474874 20.000000 -2.474874
v -2.474874 0.000000 -2.474874
v -1.944496 20.000000 -2.910144
v -1.944496 0.000000 -2.910144
v -1.339392 20.000000 -3.233578
v -1.339392 0.000000 -3.233578
v -0.682816 20.000000 -3.432748
v -0.682816 0.000000 -3.432748
v 0.000000 20.000000 -3.500000
v 0.000000 0.000000 -3.500000
v 0.682816 20.000000 -3.432748
v 0.682816 0.000000 -3.432748
v 1.339392 20.000000 -3.233578
v 1.339392 0.000000 -3.233578
v 1.944496 20.000000 -2.910144
v 1.944496 0.000000 -2.910144
v 2.474874 20.000000 -2.474874
v 2.474874 0.000000 -2.474874
v 2.910144 20.000000 -1.944496
v 2.910144 0.000000 -1.944496
v 3.233578 20.000000 -1.339392
v 3.233578 0.000000 -1.339392
v 3.432748 20.000000 -0.682816
v 3.432748 0.000000 -0.682816
v 3.500000 20.000000 0.000000
v 3.500000 0.000000 0.000000
v 3.432748 20.000000 0.682816
v 3.432748 0.000000 0.682816
v 3.233578 20.000000 1.339392
v 3.233578 0.000000 1.339392
v 2.910144 20.000000 1.944496
v 2.910144 0.000000 1.944496
v 2.474874 20.000000 2.474874
v 2.474874 0.000000 2.474874
v 1.944496 20.000000 2.910144
v 1.944496 0.000000 2.910144
v 1.339392 20.000000 3.233578
v 1.339392 0.000000 3.233578
v 0.682816 20.000000 3.432748
v 0.682816 0.000000 3.432748
v 0.000000 21.184347 5.261472
v -1.026462 21.184347 5.160374
v -2.013478 21.184347 4.860966
v -2.923117 21.184347 4.374754
v -3.720423 21.184347 3.720423
v -4.374754 21.184347 2.923117
v -4.860966 21.184347 2.013478
v -5.160374 21.184347 1.026462
v -5.261472 21.184347 -0.000000
v -5.160374 21.184347 -1.026462
v -4.860966 21.184347 -2.013478
v -4.374754 21.184347 -2.923117
v -3.720423 21.184347 -3.720423
v -2.923117 21.184347 -4.374754
v -2.013478 21.184347 -4.860966
v -1.026462 21.184347 -5.160374
v 0.000000 21.184347 -5.261472
v 1.026462 21.184347 -5.160374
v 2.013478 21.184347 -4.860966
v 2.923117 21.184347 -4.374754
v 3.720423 21.184347 -3.720423
v 4.374754 21.184347 -2.923117
v 4.860966 21.184347 -2.013478
v 5.160374 21.184347 -1.026462
v 5.261472 21.184347 -0.000000
v 5.160374 21.184347 1.026462
v 4.860966 21.184347 2.013478
v 4.374754 21.184347 2.923117
v 3.720423 21.184347 3.720423
v 2.923117 21.184347 4.374754
v 2.013478 21.184347 4.860966
v 1.026462 21.184347 5.160374
v 0.000000 21.184347 4.454617
v -0.869053 21.184347 4.369022
v -1.704708 21.184347 4.115529
v -2.474852 21.184347 3.703878
v -3.149889 21.184347 3.149889
v -3.703878 21.184347 2.474852
v -4.115529 21.184347 1.704708
v -4.369022 21.184347 0.869052
v -4.454617 21.184347 -0.000000
v -4.369022 21.184347 -0.869053
v -4.115529 21.184347 -1.704708
v -3.703878 21.184347 -2.474852
v -3.149889 21.184347 -3.149889
v -2.474852 21.184347 -3.703878
v -1.704708 21.184347 -4.115529
v -0.869053 21.184347 -4.369022
v 0.000000 21.184347 -4.454617
v 0.869053 21.184347 -4.369022
v 1.704708 21.184347 -4.115529
v 2.474852 21.184347 -3.703878
v 3.149889 21.184347 -3.149889
v 3.703878 21.184347 -2.474852
v 4.115529 21.184347 -1.704708
v 4.369022 21.184347 -0.869053
v 4.454617 21.184347 -0.000000
v 4.369022 21.184347 0.869052
v 4.115529 21.184347 1.704708
v 3.703878 21.184347 2.474852
v 3.149889 21.184347 3.149889
v 2.474852 21.184347 3.703878
v 1.704708 21.184347 4.115529
v 0.869053 21.184347 4.369022
v 0.000000 23.211189 5.261472
v -1.026462 23.211189 5.160374
v -2.013478 23.211189 4.860966
v -2.923117 23.211189 4.374754
v -3.720423 23.211189 3.720423
v -4.374754 23.211189 2.923117
v -4.860966 23.211189 2.013478
v -5.160374 23.211189 1.026462
v -5.261472 23.211189 -0.000000
v -5.160374 23.211189 -1.026462
v -4.860966 23.211189 -2.013478
v -4.374754 23.211189 -2.923117
v -3.720423 23.211189 -3.720423
v -2.923117 23.211189 -4.374754
v -2.013478 23.211189 -4.860966
v -1.026462 23.211189 -5.160374
v 0.000000 23.211189 -5.261472
v 1.026462 23.211189 -5.160374
v 2.013478 23.211189 -4.860966
v 2.923117 23.211189 -4.374754
v 3.720423 23.211189 -3.720423
v 4.374754 23.211189 -2.923117
v 4.860966 23.211189 -2.013478
v 5.160374 23.211189 -1.026462
v 5.261472 23.211189 -0.000000
v 5.160374 23.211189 1.026462
v 4.860966 23.211189 2.013478
v 4.374754 23.211189 2.923117
v 3.720423 23.211189 3.720423
v 2.923117 23.211189 4.374754
v 2.013478 23.211189 4.860966
v 1.026462 23.211189 5.160374
v 0.000000 23.211189 4.454617
v -0.869053 23.211189 4.369022
v -1.704708 23.211189 4.115529
v -2.474852 23.211189 3.703878
v -3.149889 23.211189 3.149889
v -3.703878 23.211189 2.474852
v -4.115529 23.211189 1.704708
v -4.369022 23.211189 0.869052
v -4.454617 23.211189 -0.000000
v -4.369022 23.211189 -0.869053
v -4.115529 23.211189 -1.704708
v -3.703878 23.211189 -2.474852
v -3.149889 23.211189 -3.149889
v -2.474852 23.211189 -3.703878
v -1.704708 23.211189 -4.115529
v -0.869053 23.211189 -4.369022
v 0.000000 23.211189 -4.454617
v 0.869053 23.211189 -4.369022
v 1.704708 23.211189 -4.115529
v 2.474852 23.211189 -3.703878
v 3.149889 23.211189 -3.149889
v 3.703878 23.211189 -2.474852
v 4.115529 23.211189 -1.704708
v 4.369022 23.211189 -0.869053
v 4.454617 23.211189 -0.000000
v 4.369022 23.211189 0.869052
v 4.115529 23.211189 1.704708
v 3.703878 23.211189 2.474852
v 3.149889 23.211189 3.149889
v 2.474852 23.211189 3.703878
v 1.704708 23.211189 4.115529
v 0.869053 23.211189 4.369022
v -1.026462 24.190538 5.160374
v -2.013478 24.190538 4.860966
v -2.923117 24.190538 4.374754
v -4.374754 24.190538 2.923117
v -4.860966 24.190538 2.013478
v -5.160374 24.190538 1.026462
v -5.160374 24.190538 -1.026462
v -4.860966 24.190538 -2.013478
v -4.374754 24.190538 -2.923117
v -2.923117 24.190538 -4.374754
v -2.013478 24.190538 -4.860966
v -1.026462 24.190538 -5.160374
v 1.026462 24.190538 -5.160374
v 2.013478 24.190538 -4.860966
v 2.923117 24.190538 -4.374754
v 4.374754 24.190538 -2.923117
v 4.860966 24.190538 -2.013478
v 5.160374 24.190538 -1.026462
v 5.160374 24.190538 1.026462
v 4.860966 24.190538 2.013478
v 4.374754 24.190538 2.923117
v 2.923117 24.190538 4.374754
v 2.013478 24.190538 4.860966
v 1.026462 24.190538 5.160374
v -0.869053 24.190538 4.369022
v -1.704708 24.190538 4.115529
v -2.474852 24.190538 3.703878
v -3.703878 24.190538 2.474852
v -4.115529 24.190538 1.704708
v -4.369022 24.190538 0.869052
v -4.369022 24.190538 -0.869053
v -4.115529 24.190538 -1.704708
v -3.703878 24.190538 -2.474852
v -2.474852 24.190538 -3.703878
v -1.704708 24.190538 -4.115529
v -0.869053 24.190538 -4.369022
v 0.869053 24.190538 -4.369022
v 1.704708 24.190538 -4.115529
v 2.474852 24.190538 -3.703878
v 3.703878 24.190538 -2.474852
v 4.115529 24.190538 -1.704708
v 4.369022 24.190538 -0.869053
v 4.369022 24.190538 0.869052
v 4.115529 24.190538 1.704708
v 3.703878 24.190538 2.474852
v 2.474852 24.190538 3.703878
v 1.704708 24.190538 4.115529
v 0.869053 24.190538 4.369022
vn -0.0980 -0.0000 0.9952
vn -0.2903 -0.0000 0.9569
vn -0.4714 -0.0000 0.8819
vn -0.6344 -0.0000 0.7730
vn -0.7730 -0.0000 0.6344
vn -0.8819 -0.0000 0.4714
vn -0.9569 -0.0000 0.2903
vn -0.9952 -0.0000 0.0980
vn -0.9952 -0.0000 -0.0980
vn -0.9569 -0.0000 -0.2903
vn -0.8819 -0.0000 -0.4714
vn -0.7730 -0.0000 -0.6344
vn -0.6344 -0.0000 -0.7730
vn -0.4714 -0.0000 -0.8819
vn -0.2903 -0.0000 -0.9569
vn -0.0980 -0.0000 -0.9952
vn 0.0980 -0.0000 -0.9952
vn 0.2903 -0.0000 -0.9569
vn 0.4714 -0.0000 -0.8819
vn 0.6344 -0.0000 -0.7730
vn 0.7730 -0.0000 -0.6344
vn 0.8819 -0.0000 -0.4714
vn 0.9569 -0.0000 -0.2903
vn 0.9952 -0.0000 -0.0980
vn 0.9952 -0.0000 0.0980
vn 0.9569 -0.0000 0.2903
vn 0.8819 -0.0000 0.4714
vn 0.7730 -0.0000 0.6344
vn 0.6344 -0.0000 0.7730
vn 0.4714 -0.0000 0.8819
vn -0.0000 -1.0000 -0.0000
vn 0.2903 -0.0000 0.9569
vn 0.0980 -0.0000 0.9952
vn -0.5357 -0.8286 -0.1625
vn 0.2639 -0.8286 -0.4937
vn 0.4327 -0.8286 0.3551
vn -0.4937 -0.8286 0.2639
vn -0.1625 -0.8286 -0.5357
vn 0.5571 -0.8286 -0.0549
vn -0.1625 -0.8286 0.5357
vn -0.4937 -0.8286 -0.2639
vn 0.3551 -0.8286 -0.4327
vn 0.3551 -0.8286 0.4327
vn -0.5357 -0.8286 0.1625
vn -0.0549 -0.8286 -0.5571
vn 0.5571 -0.8286 0.0549
vn -0.2639 -0.8286 0.4937
vn -0.4327 -0.8286 -0.3551
vn 0.4327 -0.8286 -0.3551
vn 0.2639 -0.8286 0.4937
vn -0.5571 -0.8286 0.0549
vn 0.0549 -0.8286 -0.5571
vn 0.5357 -0.8286 0.1625
vn -0.3551 -0.8286 0.4327
vn -0.3551 -0.8286 -0.4327
vn 0.4937 -0.8286 -0.2639
vn 0.1625 -0.8286 0.5357
vn -0.5571 -0.8286 -0.0549
vn 0.1625 -0.8286 -0.5357
vn 0.4937 -0.8286 0.2639
vn -0.4327 -0.8286 0.3551
vn -0.2639 -0.8286 -0.4937
vn 0.5357 -0.8286 -0.1625
vn -0.0549 -0.8286 0.5571
vn 0.0549 -0.8286 0.5571
vn -0.0000 1.0000 -0.0000
vn 0.1951 -0.0000 -0.9808
vn -0.8315 -0.0000 -0.5556
vn 0.5556 -0.0000 -0.8315
vn 0.8315 -0.0000 -0.5556
vn 0.1951 -0.0000 0.9808
vn -0.9808 -0.0000 -0.1951
vn -0.1951 -0.0000 -0.9808
vn -0.8315 -0.0000 0.5556
vn -0.9808 -0.0000 0.1951
vn -0.5556 -0.0000 0.8315
vn -0.5556 -0.0000 -0.8315
vn 0.5556 -0.0000 0.8315
vn 0.9808 -0.0000 0.1951
vn 0.8315 -0.0000 0.5556
vn -0.1951 -0.0000 0.9808
vn 0.9808 -0.0000 -0.1951
vt 1.000000 0.500000
vt 1.000000 1.000000
vt 0.968750 1.000000
vt 0.968750 0.500000
vt 0.937500 1.000000
vt 0.937500 0.500000
vt 0.906250 1.000000
vt 0.906250 0.500000
vt 0.875000 1.000000
vt 0.875000 0.500000
vt 0.843750 1.000000
vt 0.843750 0.500000
vt 0.812500 1.000000
vt 0.812500 0.500000
vt 0.781250 1.000000
vt 0.781250 0.500000
vt 0.750000 1.000000
vt 0.750000 0.500000
vt 0.718750 1.000000
vt 0.718750 0.500000
vt 0.687500 1.000000
vt 0.687500 0.500000
vt 0.656250 1.000000
vt 0.656250 0.500000
vt 0.625000 1.000000
vt 0.625000 0.500000
vt 0.593750 1.000000
vt 0.593750 0.500000
vt 0.562500 1.000000
vt 0.562500 0.500000
vt 0.531250 1.000000
vt 0.531250 0.500000
vt 0.500000 1.000000
vt 0.500000 0.500000
vt 0.468750 1.000000
vt 0.468750 0.500000
vt 0.437500 1.000000
vt 0.437500 0.500000
vt 0.406250 1.000000
vt 0.406250 0.500000
vt 0.375000 1.000000
vt 0.375000 0.500000
vt 0.343750 1.000000
vt 0.343750 0.500000
vt 0.312500 1.000000
vt 0.312500 0.500000
vt 0.281250 1.000000
vt 0.281250 0.500000
vt 0.250000 1.000000
vt 0.250000 0.500000
vt 0.218750 1.000000
vt 0.218750 0.500000
vt 0.187500 1.000000
vt 0.187500 0.500000
vt 0.156250 1.000000
vt 0.156250 0.500000
vt 0.125000 1.000000
vt 0.125000 0.500000
vt 0.093750 1.000000
vt 0.093750 0.500000
vt 0.062500 1.000000
vt 0.062500 0.500000
vt 0.296822 0.485388
vt 0.250000 0.490000
vt 0.203178 0.485388
vt 0.158156 0.471731
vt 0.116663 0.449553
vt 0.080294 0.419706
vt 0.050447 0.383337
vt 0.028269 0.341844
vt 0.014612 0.296822
vt 0.010000 0.250000
vt 0.014612 0.203178
vt 0.028269 0.158156
vt 0.050447 0.116663
vt 0.080294 0.080294
vt 0.116663 0.050447
vt 0.158156 0.028269
vt 0.203178 0.014612
vt 0.250000 0.010000
vt 0.296822 0.014612
vt 0.341844 0.028269
vt 0.383337 0.050447
vt 0.419706 0.080294
vt 0.449553 0.116663
vt 0.471731 0.158156
vt 0.485388 0.203178
vt 0.490000 0.250000
vt 0.485388 0.296822
vt 0.471731 0.341844
vt 0.449553 0.383337
vt 0.419706 0.419706
vt 0.383337 0.449553
vt 0.341844 0.471731
vt 0.031250 1.000000
vt 0.031250 0.500000
vt 0.000000 1.000000
vt 0.000000 0.500000
vt 0.514612 0.296822
vt 0.510000 0.250000
vt 0.750000 0.490000
vt 0.796822 0.485388
vt 0.841844 0.471731
vt 0.883337 0.449553
vt 0.919706 0.419706
vt 0.949553 0.383337
vt 0.971731 0.341844
vt 0.985388 0.296822
vt 0.990000 0.250000
vt 0.985388 0.203178
vt 0.971731 0.158156
vt 0.949553 0.116663
vt 0.919706 0.080294
vt 0.883337 0.050447
vt 0.841844 0.028269
vt 0.796822 0.014612
vt 0.750000 0.010000
vt 0.703178 0.014612
vt 0.658156 0.028269
vt 0.616663 0.050447
vt 0.580294 0.080294
vt 0.550447 0.116663
vt 0.528269 0.158156
vt 0.514612 0.203178
vt 0.528269 0.341844
vt 0.550447 0.383337
vt 0.580294 0.419706
vt 0.616663 0.449553
vt 0.658156 0.471731
vt 0.703178 0.485388
s 0
usemtl Brick
f 1/1/1 3/4/1 4/3/1 2/2/1
f 3/4/2 5/6/2 6/5/2 4/3/2
f 5/6/3 7/8/3 8/7/3 6/5/3
f 7/8/4 9/10/4 10/9/4 8/7/4
f 9/10/5 11/12/5 12/11/5 10/9/5
f 11/12/6 13/14/6 14/13/6 12/11/6
f 13/14/7 15/16/7 16/15/7 14/13/7
f 15/16/8 17/18/8 18/17/8 16/15/8
f 17/18/9 19/20/9 20/19/9 18/17/9
f 19/20/10 21/22/10 22/21/10 20/19/10
f 21/22/11 23/24/11 24/23/11 22/21/11
f 23/24/12 25/26/12 26/25/12 24/23/12
f 25/26/13 27/28/13 28/27/13 26/25/13
f 27/28/14 29/30/14 30/29/14 28/27/14
f 29/30/15 31/32/15 32/31/15 30/29/15
f 31/32/16 33/34/16 34/33/16 32/31/16
f 33/34/17 35/36/17 36/35/17 34/33/17
f 35/36/18 37/38/18 38/37/18 36/35/18
f 37/38/19 39/40/19 40/39/19 38/37/19
f 39/40/20 41/42/20 42/41/20 40/39/20
f 41/42/21 43/44/21 44/43/21 42/41/21
f 43/44/22 45/46/22 46/45/22 44/43/22
f 45/46/23 47/48/23 48/47/23 46/45/23
f 47/48/24 49/50/24 50/49/24 48/47/24
f 49/50/25 51/52/25 52/51/25 50/49/25
f 51/52/26 53/54/26 54/53/26 52/51/26
f 53/54/27 55/56/27 56/55/27 54/53/27
f 55/56/28 57/58/28 58/57/28 56/55/28
f 57/58/29 59/60/29 60/59/29 58/57/29
f 59/60/30 61/62/30 62/61/30 60/59/30
f 4/63/31 6/94/31 8/93/31 10/92/31 12/91/31 14/90/31 16/89/31 18/88/31 20/87/31 22/86/31 24/85/31 26/84/31 28/83/31 30/82/31 32/81/31 34/80/31 36/79/31 38/78/31 40/77/31 42/76/31 44/75/31 46/74/31 48/73/31 50/72/31 52/71/31 54/70/31 56/69/31 58/68/31 60/67/31 62/66/31 64/65/31 2/64/31
f 61/62/32 63/96/32 64/95/32 62/61/32
f 63/96/33 1/98/33 2/97/33 64/95/33
f 19/20/34 74/20/34 75/22/34 21/22/34
f 122/99/9 186/99/9 185/100/9 121/100/9
f 37/38/35 83/38/35 84/40/35 39/40/35
f 55/56/36 92/56/36 93/58/36 57/58/36
f 11/12/37 70/12/37 71/14/37 13/14/37
f 29/30/38 79/30/38 80/32/38 31/32/38
f 47/48/39 88/48/39 89/50/39 49/50/39
f 3/4/40 66/4/40 67/6/40 5/6/40
f 21/22/41 75/22/41 76/24/41 23/24/41
f 39/40/42 84/40/42 85/42/42 41/42/42
f 57/58/43 93/58/43 94/60/43 59/60/43
f 13/14/44 71/14/44 72/16/44 15/16/44
f 31/32/45 80/32/45 81/34/45 33/34/45
f 49/50/46 89/50/46 90/52/46 51/52/46
f 5/6/47 67/6/47 68/8/47 7/8/47
f 23/24/48 76/24/48 77/26/48 25/26/48
f 41/42/49 85/42/49 86/44/49 43/44/49
f 59/60/50 94/60/50 95/62/50 61/62/50
f 15/16/51 72/16/51 73/18/51 17/18/51
f 33/34/52 81/34/52 82/36/52 35/36/52
f 51/52/53 90/52/53 91/54/53 53/54/53
f 7/8/54 68/8/54 69/10/54 9/10/54
f 25/26/55 77/26/55 78/28/55 27/28/55
f 43/44/56 86/44/56 87/46/56 45/46/56
f 61/62/57 95/62/57 96/96/57 63/96/57
f 17/18/58 73/18/58 74/20/58 19/20/58
f 35/36/59 82/36/59 83/38/59 37/38/59
f 53/54/60 91/54/60 92/56/60 55/56/60
f 9/10/61 69/10/61 70/12/61 11/12/61
f 27/28/62 78/28/62 79/30/62 29/30/62
f 45/46/63 87/46/63 88/48/63 47/48/63
f 1/1/64 65/1/64 66/4/64 3/4/64
f 63/96/65 96/96/65 65/98/65 1/98/65
f 74/20/10 138/20/10 139/22/10 75/22/10
f 121/100/8 185/100/8 184/124/8 120/124/8
f 73/18/9 137/18/9 138/20/9 74/20/9
f 120/124/7 184/124/7 183/123/7 119/123/7
f 72/16/8 136/16/8 137/18/8 73/18/8
f 119/123/6 183/123/6 182/122/6 118/122/6
f 71/14/7 135/14/7 136/16/7 72/16/7
f 118/122/5 182/122/5 181/121/5 117/121/5
f 70/12/6 134/12/6 135/14/6 71/14/6
f 96/96/33 160/96/33 129/98/33 65/98/33
f 117/121/4 181/121/4 180/120/4 116/120/4
f 69/10/5 133/10/5 134/12/5 70/12/5
f 95/62/32 159/62/32 160/96/32 96/96/32
f 116/120/3 180/120/3 179/119/3 115/119/3
f 68/8/4 132/8/4 133/10/4 69/10/4
f 94/60/30 158/60/30 159/62/30 95/62/30
f 115/119/2 179/119/2 178/118/2 114/118/2
f 67/6/3 131/6/3 132/8/3 68/8/3
f 93/58/29 157/58/29 158/60/29 94/60/29
f 114/118/1 178/118/1 177/117/1 113/117/1
f 66/4/2 130/4/2 131/6/2 67/6/2
f 92/56/28 156/56/28 157/58/28 93/58/28
f 113/117/33 177/117/33 176/116/33 112/116/33
f 65/1/1 129/1/1 130/4/1 66/4/1
f 91/54/27 155/54/27 156/56/27 92/56/27
f 112/116/32 176/116/32 175/115/32 111/115/32
f 90/52/26 154/52/26 155/54/26 91/54/26
f 111/115/30 175/115/30 174/114/30 110/114/30
f 89/50/25 153/50/25 154/52/25 90/52/25
f 110/114/29 174/114/29 173/113/29 109/113/29
f 88/48/24 152/48/24 153/50/24 89/50/24
f 192/130/15 240/130/15 239/129/15 191/129/15
f 149/42/66 181/42/66 182/44/66 150/44/66
f 136/16/66 168/16/66 169/18/66 137/18/66
f 186/52/67 235/52/67 211/52/67 154/52/67
f 137/18/66 169/18/66 170/20/66 138/20/66
f 150/44/22 208/44/22 209/46/22 151/46/22
f 132/8/68 195/8/68 219/8/68 164/8/68
f 152/48/66 184/48/66 185/50/66 153/50/66
f 191/129/14 239/129/14 238/128/14 190/128/14
f 153/50/66 185/50/66 186/52/66 154/52/66
f 140/24/66 172/24/66 173/26/66 141/26/66
f 164/104/19 219/104/19 218/103/19 163/103/19
f 141/26/66 173/26/66 174/28/66 142/28/66
f 140/24/69 201/24/69 225/24/69 172/24/69
f 163/103/18 218/103/18 217/102/18 162/102/18
f 129/1/66 161/1/66 162/4/66 130/4/66
f 156/56/66 188/56/66 189/58/66 157/58/66
f 135/14/7 197/14/7 198/16/7 136/16/7
f 176/116/32 228/116/32 227/115/32 175/115/32
f 157/58/66 189/58/66 190/60/66 158/60/66
f 144/32/66 176/32/66 177/34/66 145/34/66
f 190/60/70 238/60/70 214/60/70 158/60/70
f 134/12/6 196/12/6 197/14/6 135/14/6
f 145/34/66 177/34/66 178/36/66 146/36/66
f 132/8/66 164/8/66 165/10/66 133/10/66
f 175/115/30 227/115/30 226/114/30 174/114/30
f 147/38/19 206/38/19 207/40/19 148/40/19
f 133/10/66 165/10/66 166/12/66 134/12/66
f 160/96/66 192/96/66 161/98/66 129/98/66
f 188/126/11 237/126/11 236/125/11 187/125/11
f 152/48/71 210/48/71 234/48/71 184/48/71
f 148/40/66 180/40/66 181/42/66 149/42/66
f 75/22/11 139/22/11 140/24/11 76/24/11
f 123/125/10 187/125/10 186/99/10 122/99/10
f 76/24/12 140/24/12 141/26/12 77/26/12
f 124/126/11 188/126/11 187/125/11 123/125/11
f 98/102/17 162/102/17 161/101/17 97/101/17
f 77/26/13 141/26/13 142/28/13 78/28/13
f 125/127/12 189/127/12 188/126/12 124/126/12
f 99/103/18 163/103/18 162/102/18 98/102/18
f 78/28/14 142/28/14 143/30/14 79/30/14
f 126/128/13 190/128/13 189/127/13 125/127/13
f 100/104/19 164/104/19 163/103/19 99/103/19
f 79/30/15 143/30/15 144/32/15 80/32/15
f 127/129/14 191/129/14 190/128/14 126/128/14
f 101/105/20 165/105/20 164/104/20 100/104/20
f 80/32/16 144/32/16 145/34/16 81/34/16
f 128/130/15 192/130/15 191/129/15 127/129/15
f 102/106/21 166/106/21 165/105/21 101/105/21
f 81/34/17 145/34/17 146/36/17 82/36/17
f 97/101/16 161/101/16 192/130/16 128/130/16
f 103/107/22 167/107/22 166/106/22 102/106/22
f 82/36/18 146/36/18 147/38/18 83/38/18
f 104/108/23 168/108/23 167/107/23 103/107/23
f 83/38/19 147/38/19 148/40/19 84/40/19
f 105/109/24 169/109/24 168/108/24 104/108/24
f 84/40/20 148/40/20 149/42/20 85/42/20
f 106/110/25 170/110/25 169/109/25 105/109/25
f 85/42/21 149/42/21 150/44/21 86/44/21
f 107/111/26 171/111/26 170/110/26 106/110/26
f 86/44/22 150/44/22 151/46/22 87/46/22
f 108/112/27 172/112/27 171/111/27 107/111/27
f 87/46/23 151/46/23 152/48/23 88/48/23
f 109/113/28 173/113/28 172/112/28 108/112/28
f 197/14/66 221/14/66 222/16/66 198/16/66
f 208/44/66 232/44/66 233/46/66 209/46/66
f 209/46/66 233/46/66 234/48/66 210/48/66
f 199/20/66 223/20/66 224/22/66 200/22/66
f 200/22/66 224/22/66 225/24/66 201/24/66
f 211/52/66 235/52/66 236/54/66 212/54/66
f 212/54/66 236/54/66 237/56/66 213/56/66
f 202/28/66 226/28/66 227/30/66 203/30/66
f 203/30/66 227/30/66 228/32/66 204/32/66
f 193/4/66 217/4/66 218/6/66 194/6/66
f 194/6/66 218/6/66 219/8/66 195/8/66
f 214/60/66 238/60/66 239/62/66 215/62/66
f 215/62/66 239/62/66 240/96/66 216/96/66
f 205/36/66 229/36/66 230/38/66 206/38/66
f 206/38/66 230/38/66 231/40/66 207/40/66
f 196/12/66 220/12/66 221/14/66 197/14/66
f 151/46/23 209/46/23 210/48/23 152/48/23
f 179/119/2 230/119/2 229/118/2 178/118/2
f 138/20/10 199/20/10 200/22/10 139/22/10
f 178/36/72 229/36/72 205/36/72 146/36/72
f 180/120/3 231/120/3 230/119/3 179/119/3
f 139/22/11 200/22/11 201/24/11 140/24/11
f 167/107/22 221/107/22 220/106/22 166/106/22
f 136/16/73 198/16/73 222/16/73 168/16/73
f 174/28/74 226/28/74 202/28/74 142/28/74
f 168/108/23 222/108/23 221/107/23 167/107/23
f 160/96/75 216/96/75 240/96/75 192/96/75
f 154/52/26 211/52/26 212/54/26 155/54/26
f 156/56/76 213/56/76 237/56/76 188/56/76
f 182/44/77 232/44/77 208/44/77 150/44/77
f 155/54/27 212/54/27 213/56/27 156/56/27
f 183/123/6 233/123/6 232/122/6 182/122/6
f 142/28/14 202/28/14 203/30/14 143/30/14
f 166/12/78 220/12/78 196/12/78 134/12/78
f 184/124/7 234/124/7 233/123/7 183/123/7
f 162/4/79 217/4/79 193/4/79 130/4/79
f 143/30/15 203/30/15 204/32/15 144/32/15
f 171/111/26 224/111/26 223/110/26 170/110/26
f 130/4/2 193/4/2 194/6/2 131/6/2
f 148/40/80 207/40/80 231/40/80 180/40/80
f 172/112/27 225/112/27 224/111/27 171/111/27
f 131/6/3 194/6/3 195/8/3 132/8/3
f 158/60/30 214/60/30 215/62/30 159/62/30
f 170/20/81 223/20/81 199/20/81 138/20/81
f 159/62/32 215/62/32 216/96/32 160/96/32
f 187/125/10 236/125/10 235/99/10 186/99/10
f 144/32/82 204/32/82 228/32/82 176/32/82
f 146/36/18 205/36/18 206/38/18 147/38/18
usemtl Wood
f 97/101/66 128/130/66 127/129/66 126/128/66 125/127/66 124/126/66 123/125/66 122/99/66 121/100/66 120/124/66 119/123/66 118/122/66 117/121/66 116/120/66 115/119/66 114/118/66 113/117/66 112/116/66 111/115/66 110/114/66 109/113/66 108/112/66 107/111/66 106/110/66 105/109/66 104/108/66 103/107/66 102/106/66 101/105/66 100/104/66 99/103/66 98/102/66
