# Blender 4.5.2 LTS
# www.blender.org
mtllib gate.mtl
o Cube
v -0.400000 0.000000 13.000000
v -0.400000 10.000000 13.000000
v -0.400000 0.000000 3.000000
v -0.400000 10.000000 3.000000
v 0.400000 0.000000 13.000000
v 0.400000 10.000000 13.000000
v 0.400000 0.000000 3.000000
v 0.400000 10.000000 3.000000
v -0.400000 0.000000 6.333333
v -0.400000 0.000000 9.666666
v -0.400000 10.000000 9.666666
v -0.400000 10.000000 6.333333
v 0.400000 0.000000 9.666666
v 0.400000 0.000000 6.333333
v 0.400000 10.000000 6.333333
v 0.400000 10.000000 9.666666
v -0.400000 2.068634 13.000000
v -0.400000 4.068634 13.000000
v -0.400000 6.068634 13.000000
v -0.400000 8.068634 13.000000
v -0.400000 8.068634 3.000000
v -0.400000 6.068634 3.000000
v -0.400000 4.068634 3.000000
v -0.400000 2.068634 3.000000
v 0.400000 8.068634 3.000000
v 0.400000 6.068634 3.000000
v 0.400000 4.068634 3.000000
v 0.400000 2.068634 3.000000
v 0.400000 8.068634 13.000000
v 0.400000 6.068634 13.000000
v 0.400000 4.068634 13.000000
v 0.400000 2.068634 13.000000
v 0.400000 8.068634 6.333333
v 0.400000 6.068634 6.333333
v 0.400000 4.068634 6.333333
v 0.400000 2.068634 6.333333
v 0.400000 8.068634 9.666666
v 0.400000 6.068634 9.666666
v 0.400000 4.068634 9.666666
v 0.400000 2.068634 9.666666
v -0.400000 8.068634 9.666666
v -0.400000 6.068634 9.666666
v -0.400000 4.068634 9.666666
v -0.400000 2.068634 9.666666
v -0.400000 8.068634 6.333333
v -0.400000 6.068634 6.333333
v -0.400000 4.068634 6.333333
v -0.400000 2.068634 6.333333
vn -1.0000 -0.0000 -0.0000
vn -0.0000 -0.0000 -1.0000
vn 1.0000 -0.0000 -0.0000
vn -0.0000 -0.0000 1.0000
vn -0.0000 -1.0000 -0.0000
vn -0.0000 1.0000 -0.0000
vt 0.576716 0.166667
vt 0.625000 0.166667
vt 0.625000 0.250000
vt 0.576716 0.250000
vt 0.625000 0.500000
vt 0.576716 0.500000
vt 0.576716 0.666667
vt 0.625000 0.666667
vt 0.625000 0.750000
vt 0.576716 0.750000
vt 0.625000 1.000000
vt 0.576716 1.000000
vt 0.125000 0.666667
vt 0.375000 0.666667
vt 0.375000 0.750000
vt 0.125000 0.750000
vt 0.875000 0.666667
vt 0.875000 0.750000
vt 0.875000 0.500000
vt 0.875000 0.583333
vt 0.625000 0.583333
vt 0.125000 0.500000
vt 0.375000 0.500000
vt 0.375000 0.583333
vt 0.125000 0.583333
vt 0.576716 0.583333
vt 0.576716 0.000000
vt 0.625000 0.000000
vt 0.625000 0.083333
vt 0.576716 0.083333
vt 0.375000 0.083333
vt 0.426716 0.083333
vt 0.426716 0.166667
vt 0.375000 0.166667
vt 0.476716 0.083333
vt 0.476716 0.166667
vt 0.526716 0.083333
vt 0.526716 0.166667
vt 0.375000 0.000000
vt 0.426716 0.000000
vt 0.476716 0.000000
vt 0.526716 0.000000
vt 0.426716 0.583333
vt 0.426716 0.666667
vt 0.476716 0.583333
vt 0.476716 0.666667
vt 0.526716 0.583333
vt 0.526716 0.666667
vt 0.426716 0.500000
vt 0.476716 0.500000
vt 0.526716 0.500000
vt 0.426716 0.750000
vt 0.426716 1.000000
vt 0.375000 1.000000
vt 0.476716 0.750000
vt 0.476716 1.000000
vt 0.526716 0.750000
vt 0.526716 1.000000
vt 0.375000 0.250000
vt 0.426716 0.250000
vt 0.476716 0.250000
vt 0.526716 0.250000
s 0
f 45/1/1 12/2/1 4/3/1 21/4/1
f 21/4/2 4/3/2 8/5/2 25/6/2
f 37/7/3 16/8/3 6/9/3 29/10/3
f 29/10/4 6/9/4 2/11/4 20/12/4
f 10/13/5 13/14/5 5/15/5 1/16/5
f 16/8/6 11/17/6 2/18/6 6/9/6
f 8/5/6 4/19/6 12/20/6 15/21/6
f 15/21/6 12/20/6 11/17/6 16/8/6
f 3/22/5 7/23/5 14/24/5 9/25/5
f 9/25/5 14/24/5 13/14/5 10/13/5
f 25/6/3 8/5/3 15/21/3 33/26/3
f 33/26/3 15/21/3 16/8/3 37/7/3
f 20/27/1 2/28/1 11/29/1 41/30/1
f 41/30/1 11/29/1 12/2/1 45/1/1
f 10/31/1 44/32/1 48/33/1 9/34/1
f 44/32/1 43/35/1 47/36/1 48/33/1
f 43/35/1 42/37/1 46/38/1 47/36/1
f 42/37/1 41/30/1 45/1/1 46/38/1
f 1/39/1 17/40/1 44/32/1 10/31/1
f 17/40/1 18/41/1 43/35/1 44/32/1
f 18/41/1 19/42/1 42/37/1 43/35/1
f 19/42/1 20/27/1 41/30/1 42/37/1
f 14/24/3 36/43/3 40/44/3 13/14/3
f 36/43/3 35/45/3 39/46/3 40/44/3
f 35/45/3 34/47/3 38/48/3 39/46/3
f 34/47/3 33/26/3 37/7/3 38/48/3
f 7/23/3 28/49/3 36/43/3 14/24/3
f 28/49/3 27/50/3 35/45/3 36/43/3
f 27/50/3 26/51/3 34/47/3 35/45/3
f 26/51/3 25/6/3 33/26/3 34/47/3
f 5/15/4 32/52/4 17/53/4 1/54/4
f 32/52/4 31/55/4 18/56/4 17/53/4
f 31/55/4 30/57/4 19/58/4 18/56/4
f 30/57/4 29/10/4 20/12/4 19/58/4
f 13/14/3 40/44/3 32/52/3 5/15/3
f 40/44/3 39/46/3 31/55/3 32/52/3
f 39/46/3 38/48/3 30/57/3 31/55/3
f 38/48/3 37/7/3 29/10/3 30/57/3
f 3/59/2 24/60/2 28/49/2 7/23/2
f 24/60/2 23/61/2 27/50/2 28/49/2
f 23/61/2 22/62/2 26/51/2 27/50/2
f 22/62/2 21/4/2 25/6/2 26/51/2
f 9/34/1 48/33/1 24/60/1 3/59/1
f 48/33/1 47/36/1 23/61/1 24/60/1
f 47/36/1 46/38/1 22/62/1 23/61/1
f 46/38/1 45/1/1 21/4/1 22/62/1
o Cube.001
v -0.400000 0.000000 -3.000000
v -0.400000 10.000000 -3.000000
v -0.400000 0.000000 -13.000000
v -0.400000 10.000000 -13.000000
v 0.400000 0.000000 -3.000000
v 0.400000 10.000000 -3.000000
v 0.400000 0.000000 -13.000000
v 0.400000 10.000000 -13.000000
v -0.400000 0.000000 -9.666666
v -0.400000 0.000000 -6.333333
v -0.400000 10.000000 -6.333333
v -0.400000 10.000000 -9.666666
v 0.400000 0.000000 -6.333333
v 0.400000 0.000000 -9.666666
v 0.400000 10.000000 -9.666666
v 0.400000 10.000000 -6.333333
v -0.400000 2.068634 -3.000000
v -0.400000 4.068634 -3.000000
v -0.400000 6.068634 -3.000000
v -0.400000 8.068634 -3.000000
v -0.400000 8.068634 -13.000000
v -0.400000 6.068634 -13.000000
v -0.400000 4.068634 -13.000000
v -0.400000 2.068634 -13.000000
v 0.400000 8.068634 -13.000000
v 0.400000 6.068634 -13.000000
v 0.400000 4.068634 -13.000000
v 0.400000 2.068634 -13.000000
v 0.400000 8.068634 -3.000000
v 0.400000 6.068634 -3.000000
v 0.400000 4.068634 -3.000000
v 0.400000 2.068634 -3.000000
v 0.400000 8.068634 -9.666666
v 0.400000 6.068634 -9.666666
v 0.400000 4.068634 -9.666666
v 0.400000 2.068634 -9.666666
v 0.400000 8.068634 -6.333333
v 0.400000 6.068634 -6.333333
v 0.400000 4.068634 -6.333333
v 0.400000 2.068634 -6.333333
v -0.400000 8.068634 -6.333333
v -0.400000 6.068634 -6.333333
v -0.400000 4.068634 -6.333333
v -0.400000 2.068634 -6.333333
v -0.400000 8.068634 -9.666666
v -0.400000 6.068634 -9.666666
v -0.400000 4.068634 -9.666666
v -0.400000 2.068634 -9.666666
vn -1.0000 -0.0000 -0.0000
vn -0.0000 -0.0000 -1.0000
vn 1.0000 -0.0000 -0.0000
vn -0.0000 -0.0000 1.0000
vn -0.0000 -1.0000 -0.0000
vn -0.0000 1.0000 -0.0000
vt 0.576716 0.166667
vt 0.625000 0.166667
vt 0.625000 0.250000
vt 0.576716 0.250000
vt 0.625000 0.500000
vt 0.576716 0.500000
vt 0.576716 0.666667
vt 0.625000 0.666667
vt 0.625000 0.750000
vt 0.576716 0.750000
vt 0.625000 1.000000
vt 0.576716 1.000000
vt 0.125000 0.666667
vt 0.375000 0.666667
vt 0.375000 0.750000
vt 0.125000 0.750000
vt 0.875000 0.666667
vt 0.875000 0.750000
vt 0.875000 0.500000
vt 0.875000 0.583333
vt 0.625000 0.583333
vt 0.125000 0.500000
vt 0.375000 0.500000
vt 0.375000 0.583333
vt 0.125000 0.583333
vt 0.576716 0.583333
vt 0.576716 0.000000
vt 0.625000 0.000000
vt 0.625000 0.083333
vt 0.576716 0.083333
vt 0.375000 0.083333
vt 0.426716 0.083333
vt 0.426716 0.166667
vt 0.375000 0.166667
vt 0.476716 0.083333
vt 0.476716 0.166667
vt 0.526716 0.083333
vt 0.526716 0.166667
vt 0.375000 0.000000
vt 0.426716 0.000000
vt 0.476716 0.000000
vt 0.526716 0.000000
vt 0.426716 0.583333
vt 0.426716 0.666667
vt 0.476716 0.583333
vt 0.476716 0.666667
vt 0.526716 0.583333
vt 0.526716 0.666667
vt 0.426716 0.500000
vt 0.476716 0.500000
vt 0.526716 0.500000
vt 0.426716 0.750000
vt 0.426716 1.000000
vt 0.375000 1.000000
vt 0.476716 0.750000
vt 0.476716 1.000000
vt 0.526716 0.750000
vt 0.526716 1.000000
vt 0.375000 0.250000
vt 0.426716 0.250000
vt 0.476716 0.250000
vt 0.526716 0.250000
s 0
f 93/63/7 60/64/7 52/65/7 69/66/7
f 69/66/8 52/65/8 56/67/8 73/68/8
f 85/69/9 64/70/9 54/71/9 77/72/9
f 77/72/10 54/71/10 50/73/10 68/74/10
f 58/75/11 61/76/11 53/77/11 49/78/11
f 64/70/12 59/79/12 50/80/12 54/71/12
f 56/67/12 52/81/12 60/82/12 63/83/12
f 63/83/12 60/82/12 59/79/12 64/70/12
f 51/84/11 55/85/11 62/86/11 57/87/11
f 57/87/11 62/86/11 61/76/11 58/75/11
f 73/68/9 56/67/9 63/83/9 81/88/9
f 81/88/9 63/83/9 64/70/9 85/69/9
f 68/89/7 50/90/7 59/91/7 89/92/7
f 89/92/7 59/91/7 60/64/7 93/63/7
f 58/93/7 92/94/7 96/95/7 57/96/7
f 92/94/7 91/97/7 95/98/7 96/95/7
f 91/97/7 90/99/7 94/100/7 95/98/7
f 90/99/7 89/92/7 93/63/7 94/100/7
f 49/101/7 65/102/7 92/94/7 58/93/7
f 65/102/7 66/103/7 91/97/7 92/94/7
f 66/103/7 67/104/7 90/99/7 91/97/7
f 67/104/7 68/89/7 89/92/7 90/99/7
f 62/86/9 84/105/9 88/106/9 61/76/9
f 84/105/9 83/107/9 87/108/9 88/106/9
f 83/107/9 82/109/9 86/110/9 87/108/9
f 82/109/9 81/88/9 85/69/9 86/110/9
f 55/85/9 76/111/9 84/105/9 62/86/9
f 76/111/9 75/112/9 83/107/9 84/105/9
f 75/112/9 74/113/9 82/109/9 83/107/9
f 74/113/9 73/68/9 81/88/9 82/109/9
f 53/77/10 80/114/10 65/115/10 49/116/10
f 80/114/10 79/117/10 66/118/10 65/115/10
f 79/117/10 78/119/10 67/120/10 66/118/10
f 78/119/10 77/72/10 68/74/10 67/120/10
f 61/76/9 88/106/9 80/114/9 53/77/9
f 88/106/9 87/108/9 79/117/9 80/114/9
f 87/108/9 86/110/9 78/119/9 79/117/9
f 86/110/9 85/69/9 77/72/9 78/119/9
f 51/121/8 72/122/8 76/111/8 55/85/8
f 72/122/8 71/123/8 75/112/8 76/111/8
f 71/123/8 70/124/8 74/113/8 75/112/8
f 70/124/8 69/66/8 73/68/8 74/113/8
f 57/96/7 96/95/7 72/122/7 51/121/7
f 96/95/7 95/98/7 71/123/7 72/122/7
f 95/98/7 94/100/7 70/124/7 71/123/7
f 94/100/7 93/63/7 69/66/7 70/124/7
o Cube.002
v -0.295615 4.160231 3.000000
v -0.400000 10.000000 3.000000
v -0.295615 4.160231 -3.000000
v -0.400000 10.000000 -3.000000
v 0.283012 4.160231 3.000000
v 0.400000 10.000000 3.000000
v 0.283012 4.160231 -3.000000
v 0.400000 10.000000 -3.000000
v -0.328559 7.583035 -0.997637
v -0.328559 7.583035 1.002363
v -0.400000 10.000000 1.000000
v -0.400000 10.000000 -1.000000
v 0.250068 7.583035 1.002363
v 0.250068 7.583035 -0.997637
v 0.400000 10.000000 -1.000000
v 0.400000 10.000000 1.000000
v -0.400000 6.704418 3.000000
v -0.400000 8.220590 3.000000
v -0.400000 8.820590 3.000000
v -0.400000 9.420590 3.000000
v -0.400000 9.420590 -3.000000
v -0.400000 8.820590 -3.000000
v -0.400000 8.220590 -3.000000
v -0.400000 6.704418 -3.000000
v 0.400000 9.420590 -3.000000
v 0.400000 8.820590 -3.000000
v 0.400000 8.220590 -3.000000
v 0.400000 6.704418 -3.000000
v 0.400000 9.420590 3.000000
v 0.400000 8.820590 3.000000
v 0.400000 8.220590 3.000000
v 0.400000 6.704418 3.000000
v 0.400000 9.420590 -1.000000
v 0.400000 8.820590 -1.000000
v 0.365299 8.220590 -1.000000
v 0.287288 7.808690 -0.999238
v 0.400000 9.420590 1.000000
v 0.400000 8.820590 1.000000
v 0.365299 8.220590 1.000000
v 0.287288 7.808690 1.000762
v -0.400000 9.420590 1.000000
v -0.400000 8.820590 1.000000
v -0.369038 8.220590 1.000000
v -0.320559 7.808690 1.000762
v -0.400000 9.420590 -1.000000
v -0.400000 8.820590 -1.000000
v -0.369038 8.220590 -1.000000
v -0.320559 7.808690 -0.999238
vn -1.0000 -0.0000 -0.0000
vn -0.0000 -0.0000 -1.0000
vn 1.0000 -0.0000 -0.0000
vn -0.0000 -0.0000 1.0000
vn -0.0000 -0.5041 -0.8637
vn -0.0000 1.0000 -0.0000
vn -0.0000 -0.5049 0.8631
vn -0.0000 -1.0000 -0.0000
vn -0.9994 0.0354 -0.0000
vn -0.9931 -0.1169 -0.0000
vn -0.9987 -0.0515 -0.0000
vn -0.9981 -0.0348 -0.0510
vn -0.9991 -0.0251 -0.0345
vn -0.9996 -0.0258 -0.0077
vn 0.9867 -0.1627 -0.0000
vn 0.9825 -0.1861 -0.0000
vn 0.9983 -0.0577 -0.0000
vn 0.9936 -0.0553 0.0986
vn 0.9980 -0.0404 0.0479
vn 0.9995 -0.0289 0.0087
vn 0.9936 -0.0554 -0.0989
vn 0.9980 -0.0404 -0.0479
vn 0.9995 -0.0289 -0.0087
vn -0.9981 -0.0347 0.0508
vn -0.9991 -0.0251 0.0345
vn -0.9996 -0.0258 0.0077
vt 0.576716 0.166667
vt 0.625000 0.166667
vt 0.625000 0.250000
vt 0.576716 0.250000
vt 0.625000 0.500000
vt 0.576716 0.500000
vt 0.576716 0.666667
vt 0.625000 0.666667
vt 0.625000 0.750000
vt 0.576716 0.750000
vt 0.625000 1.000000
vt 0.576716 1.000000
vt 0.125000 0.666667
vt 0.375000 0.666667
vt 0.375000 0.750000
vt 0.125000 0.750000
vt 0.875000 0.666667
vt 0.875000 0.750000
vt 0.875000 0.500000
vt 0.875000 0.583333
vt 0.625000 0.583333
vt 0.125000 0.500000
vt 0.375000 0.500000
vt 0.375000 0.583333
vt 0.125000 0.583333
vt 0.576716 0.583333
vt 0.576716 0.000000
vt 0.625000 0.000000
vt 0.625000 0.083333
vt 0.576716 0.083333
vt 0.375000 0.083333
vt 0.426716 0.083333
vt 0.426716 0.166667
vt 0.375000 0.166667
vt 0.476716 0.083333
vt 0.476716 0.166667
vt 0.526716 0.083333
vt 0.526716 0.166667
vt 0.375000 0.000000
vt 0.426716 0.000000
vt 0.476716 0.000000
vt 0.526716 0.000000
vt 0.426716 0.583333
vt 0.426716 0.666667
vt 0.476716 0.583333
vt 0.476716 0.666667
vt 0.526716 0.583333
vt 0.526716 0.666667
vt 0.426716 0.500000
vt 0.476716 0.500000
vt 0.526716 0.500000
vt 0.426716 0.750000
vt 0.426716 1.000000
vt 0.375000 1.000000
vt 0.476716 0.750000
vt 0.476716 1.000000
vt 0.526716 0.750000
vt 0.526716 1.000000
vt 0.375000 0.250000
vt 0.426716 0.250000
vt 0.476716 0.250000
vt 0.526716 0.250000
s 0
f 141/125/13 108/126/13 100/127/13 117/128/13
f 117/128/14 100/127/14 104/129/14 121/130/14
f 133/131/15 112/132/15 102/133/15 125/134/15
f 125/134/16 102/133/16 98/135/16 116/136/16
f 106/137/17 109/138/17 101/139/17 97/140/17
f 112/132/18 107/141/18 98/142/18 102/133/18
f 104/129/18 100/143/18 108/144/18 111/145/18
f 111/145/18 108/144/18 107/141/18 112/132/18
f 99/146/19 103/147/19 110/148/19 105/149/19
f 105/149/20 110/148/20 109/138/20 106/137/20
f 121/130/15 104/129/15 111/145/15 129/150/15
f 129/150/15 111/145/15 112/132/15 133/131/15
f 116/151/13 98/152/13 107/153/13 137/154/13
f 137/154/13 107/153/13 108/126/13 141/125/13
f 106/155/21 140/156/21 144/157/21 105/158/21
f 140/156/22 139/159/22 143/160/22 144/157/22
f 139/159/23 138/161/23 142/162/23 143/160/23
f 138/161/13 137/154/13 141/125/13 142/162/13
f 97/163/24 113/164/24 140/156/24 106/155/24
f 113/164/25 114/165/25 139/159/25 140/156/25
f 114/165/26 115/166/26 138/161/26 139/159/26
f 115/166/13 116/151/13 137/154/13 138/161/13
f 110/148/27 132/167/27 136/168/27 109/138/27
f 132/167/28 131/169/28 135/170/28 136/168/28
f 131/169/29 130/171/29 134/172/29 135/170/29
f 130/171/15 129/150/15 133/131/15 134/172/15
f 103/147/30 124/173/30 132/167/30 110/148/30
f 124/173/31 123/174/31 131/169/31 132/167/31
f 123/174/32 122/175/32 130/171/32 131/169/32
f 122/175/15 121/130/15 129/150/15 130/171/15
f 101/139/16 128/176/16 113/177/16 97/178/16
f 128/176/16 127/179/16 114/180/16 113/177/16
f 127/179/16 126/181/16 115/182/16 114/180/16
f 126/181/16 125/134/16 116/136/16 115/182/16
f 109/138/33 136/168/33 128/176/33 101/139/33
f 136/168/34 135/170/34 127/179/34 128/176/34
f 135/170/35 134/172/35 126/181/35 127/179/35
f 134/172/15 133/131/15 125/134/15 126/181/15
f 99/183/14 120/184/14 124/173/14 103/147/14
f 120/184/14 119/185/14 123/174/14 124/173/14
f 119/185/14 118/186/14 122/175/14 123/174/14
f 118/186/14 117/128/14 121/130/14 122/175/14
f 105/158/36 144/157/36 120/184/36 99/183/36
f 144/157/37 143/160/37 119/185/37 120/184/37
f 143/160/38 142/162/38 118/186/38 119/185/38
f 142/162/13 141/125/13 117/128/13 118/186/13
